<svg xmlns="http://www.w3.org/2000/svg" id="light_theme" fill="none" viewBox="0 0 40 41">
    <path fill="#FFC700" d="M33.5306 23.7016c0 2.8739-1.143 5.6301-3.1774 7.6623-2.0344 2.0322-4.7937 3.1738-7.6708 3.1738-2.4063 0-4.6351-.7881-6.4299-2.1081l15.1676-15.1509c1.3215 1.7929 2.1105 4.0192 2.1105 6.4229ZM33.3925 31.346l2.2682-5.4575L40 30.8928l-6.6075.4532ZM35.6607 21.5738l-2.2485-5.4772L40 16.5694l-4.3393 5.0044ZM24.8521 36.6655l5.4635-2.2657L29.8422 41l-4.9901-4.3345ZM15.0493 34.3998l5.4635 2.2657-4.9901 4.3148-.4734-6.5805ZM33.6686 3.99952l2.8205 2.81739L5.7791 37.493l-2.82051-2.8174L33.6686 3.99952Z"/><path fill="#FFC700" fill-rule="evenodd" d="m18.5602 6.95483 2.9191 1.83229-1.0059-3.29024 2.6627-2.22634-3.4122-.0591L18.4024 0l-1.144 3.25084-3.4517.23643 2.7416 2.08841-.8284 3.34935 2.8403-1.9702Zm-5.8778 7.50647 2.288 1.4383-.7889-2.581 2.071-1.7141-2.6825-.0591-1.0059-2.50215-.8876 2.54155-2.68242.1773 2.14992 1.6353-.6706 2.6007 2.209-1.5368Z" clip-rule="evenodd"/><path fill="#FFC700" d="M10.8481 1.04421C7.31755 3.30995 4.93097 7.30947 4.93097 11.8803c0 4.5709 2.38658 8.5704 5.97633 10.8362C4.85207 22.7165 0 17.8698 0 11.8803c0-2.87388 1.14292-5.63009 3.17734-7.66226s4.79368-3.17383 7.67076-3.17383Z"/>
</svg>